<svg xmlns:rdf="http://www.w3.org/1999/02/22-rdf-syntax-ns#" xmlns="http://www.w3.org/2000/svg" xml:space="preserve" height="93.025" viewBox="0 0 167.925 93.025002" width="167.925" version="1.1" xmlns:cc="http://creativecommons.org/ns#" xmlns:dc="http://purl.org/dc/elements/1.1/"><g transform="matrix(1.25,0,0,-1.25,0,93.025)"><g transform="scale(.1)"><path d="m250.676 650.02c-13.75-8.282-24.629-28.262-19.356-48.301 18.555 27.402 75 2.676 93.77 65.586-12.512-10.067-28.848-12.95-37.09-12.012 30.762 12.734 48.367 57.98 20.828 88.906 8.117-36.465-38.269-39.629-74.687-46.445-68.407-12.879-79.559-76.25-48.524-108.574-3.574 38.34 26.973 61.211 65.059 60.84" fill="#ed1c24"/><path d="m130.598 555.547s5.429-12.645 5.468-25.125h157.872c0.019 12.625 5.468 25.125 5.468 25.125l-75 0.019c10.137 16.797 34.578 44.141 86.231 44.102 56.23-0.039 119.082-45.547 119.355-126.355 0.43-120.696-125.715-206.965-215.383-263.352-88.32 56.387-215.0387 142.656-214.609 263.352 0.285156 80.808 63.125 126.316 119.367 126.355 51.641 0.039 76.094-27.305 86.238-44.102l-75.007-0.019zm103.183-124.465c2.285 31.867 3.047 60.871 10.039 81.926h-57.695c6.992-21.055 7.762-50.059 10.047-81.926 2.832-39.402 9.933-152.234 9.933-152.234h17.735s7.098 112.832 9.941 152.234" fill="#ed1c24"/><path d="m233.965 430.859c2.316 31.934 3.058 60.996 10.09 82.09h-57.825c7.024-21.094 7.793-50.156 10.051-82.09 2.84-39.472 9.969-152.558 9.969-152.558h17.773s7.11 113.086 9.942 152.558" fill="#ffffff"/><path d="m130.578 555.547s5.438-12.637 5.488-25.164h158.172c0.02 12.664 5.489 25.164 5.489 25.164h-169.149" fill="#ffffff"/><g fill="#231f20"><path d="m562.766 595.02-12.61 36.691h-0.281l-13.02-36.691h25.911zm-1.27 61.328 37.383-99.961h-22.824l-7.559 22.265h-37.371l-7.852-22.265h-22.109l37.793 99.961h22.539"/><path d="m624.777 628.77v-9.805h0.274c2.617 3.73 5.762 6.621 9.453 8.683 3.691 2.051 7.91 3.075 12.676 3.075 4.57 0 8.75-0.879 12.527-2.657 3.781-1.777 6.652-4.902 8.606-9.375 2.148 3.164 5.066 5.969 8.75 8.399 3.691 2.422 8.054 3.633 13.093 3.633 3.824 0 7.379-0.469 10.641-1.395 3.262-0.93 6.074-2.433 8.398-4.484 2.344-2.051 4.16-4.735 5.469-8.047 1.309-3.32 1.953-7.305 1.953-11.973v-48.437h-19.883v41.015c0 2.434-0.097 4.719-0.273 6.868-0.195 2.136-0.703 4.011-1.543 5.593-0.84 1.594-2.07 2.852-3.715 3.789-1.633 0.93-3.848 1.399-6.64 1.399-2.805 0-5.071-0.539-6.797-1.613-1.731-1.075-3.078-2.481-4.063-4.2-0.976-1.726-1.633-3.691-1.953-5.879-0.332-2.195-0.488-4.414-0.488-6.648v-40.324h-19.883v40.605c0 2.141-0.051 4.258-0.137 6.367-0.097 2.102-0.488 4.036-1.191 5.801-0.703 1.778-1.875 3.203-3.496 4.278-1.641 1.074-4.043 1.613-7.219 1.613-0.926 0-2.176-0.207-3.711-0.637-1.531-0.41-3.035-1.211-4.48-2.383-1.446-1.16-2.676-2.84-3.711-5.039-1.028-2.187-1.543-5.058-1.543-8.601v-42.004h-19.875v72.383h18.761"/><path d="m776.051 611.828c-2.383 2.606-5.996 3.914-10.86 3.914-3.164 0-5.8-0.527-7.91-1.601-2.09-1.075-3.769-2.403-5.039-3.993-1.25-1.593-2.148-3.273-2.656-5.039-0.508-1.769-0.82-3.359-0.898-4.757h32.343c-0.937 5.039-2.597 8.867-4.98 11.476zm-22.481-38.078c2.989-2.891 7.285-4.344 12.891-4.344 4.004 0 7.461 1.004 10.371 3.016 2.891 2.004 4.668 4.121 5.313 6.367h17.5c-2.793-8.68-7.09-14.891-12.872-18.625-5.8-3.738-12.793-5.594-21.015-5.594-5.684 0-10.82 0.91-15.391 2.727-4.59 1.824-8.457 4.414-11.621 7.773-3.183 3.36-5.625 7.371-7.363 12.039-1.719 4.668-2.578 9.797-2.578 15.391 0 5.422 0.879 10.461 2.656 15.129s4.297 8.699 7.559 12.109c3.261 3.407 7.168 6.082 11.699 8.055 4.511 1.953 9.531 2.93 15.039 2.93 6.172 0 11.543-1.192 16.113-3.563 4.57-2.383 8.32-5.578 11.27-9.59 2.929-4.015 5.058-8.586 6.367-13.722 1.308-5.137 1.777-10.508 1.406-16.094h-52.226c0.273-6.445 1.894-11.113 4.882-14.004"/><path d="m831.559 628.77v-13.438h0.273c0.938 2.238 2.207 4.316 3.789 6.231 1.582 1.906 3.399 3.535 5.449 4.894 2.051 1.356 4.258 2.402 6.582 3.152 2.344 0.743 4.766 1.114 7.286 1.114 1.308 0 2.753-0.235 4.335-0.703v-18.477c-0.937 0.195-2.05 0.352-3.359 0.488-1.309 0.149-2.559 0.215-3.769 0.215-3.653 0-6.719-0.605-9.239-1.816-2.519-1.211-4.551-2.871-6.093-4.969-1.543-2.102-2.637-4.551-3.301-7.356-0.645-2.792-0.977-5.839-0.977-9.101v-32.617h-19.883v72.383h18.907"/><path d="m887.555 628.77v-72.383h-19.883v72.383h19.883zm-19.883 11.191v16.387h19.883v-16.387h-19.883"/><path d="m937.809 615.742c-3.164 0-5.821-0.722-7.969-2.168-2.149-1.445-3.906-3.308-5.254-5.594-1.348-2.296-2.305-4.816-2.871-7.57-0.567-2.754-0.84-5.476-0.84-8.183 0-2.618 0.273-5.274 0.84-7.977 0.566-2.707 1.465-5.168 2.734-7.355 1.25-2.188 2.949-3.985 5.098-5.391 2.148-1.395 4.766-2.098 7.851-2.098 4.766 0 8.418 1.336 10.997 3.992 2.558 2.657 4.16 6.231 4.824 10.704h19.179c-1.308-9.61-5.039-16.934-11.21-21.973-6.153-5.039-14.043-7.559-23.653-7.559-5.41 0-10.39 0.91-14.902 2.727-4.531 1.824-8.379 4.363-11.563 7.625-3.164 3.273-5.644 7.168-7.422 11.699-1.777 4.524-2.656 9.492-2.656 14.902 0 5.606 0.821 10.801 2.461 15.618 1.621 4.804 4.024 8.953 7.207 12.449 3.164 3.508 7.031 6.23 11.621 8.203 4.571 1.953 9.785 2.93 15.664 2.93 4.297 0 8.438-0.559 12.403-1.68 3.965-1.113 7.5-2.82 10.644-5.105 3.125-2.286 5.664-5.129 7.617-8.547 1.973-3.399 3.086-7.442 3.36-12.11h-19.453c-1.309 8.313-6.211 12.461-14.707 12.461"/><path d="m1025.52 590.059c-1.25-0.418-2.61-0.77-4.06-1.055-1.44-0.274-2.95-0.508-4.55-0.703-1.58-0.176-3.16-0.41-4.75-0.692-1.5-0.285-2.96-0.656-4.41-1.125-1.44-0.468-2.71-1.093-3.79-1.894-1.07-0.781-1.93-1.797-2.58-3.008-0.66-1.211-0.99-2.754-0.99-4.609 0-1.778 0.33-3.282 0.99-4.493 0.65-1.21 1.55-2.167 2.66-2.859 1.11-0.707 2.42-1.191 3.93-1.476 1.48-0.274 3.02-0.418 4.6-0.418 3.93 0 6.96 0.652 9.11 1.961 2.14 1.308 3.73 2.871 4.76 4.687 1.02 1.816 1.66 3.664 1.88 5.527 0.23 1.875 0.35 3.36 0.35 4.485v7.422c-0.84-0.754-1.88-1.329-3.15-1.75zm-39.254 28.066c2.05 3.086 4.648 5.547 7.832 7.422 3.164 1.867 6.742 3.195 10.702 3.984 3.97 0.801 7.97 1.192 11.97 1.192 3.66 0 7.33-0.254 11.06-0.762 3.73-0.516 7.15-1.523 10.23-3.008 3.07-1.504 5.59-3.574 7.56-6.23 1.95-2.664 2.93-6.192 2.93-10.575v-37.668c0-3.261 0.2-6.386 0.57-9.375 0.37-2.988 1.01-5.222 1.95-6.718h-20.16c-0.37 1.113-0.68 2.265-0.89 3.429-0.24 1.161-0.41 2.352-0.51 3.575-3.17-3.274-6.9-5.559-11.19-6.868-4.3-1.308-8.67-1.953-13.17-1.953-3.45 0-6.677 0.41-9.646 1.25-2.988 0.84-5.606 2.149-7.852 3.926-2.226 1.777-3.984 4.016-5.254 6.719-1.25 2.715-1.875 5.93-1.875 9.668 0 4.101 0.723 7.48 2.168 10.137 1.446 2.668 3.301 4.785 5.586 6.378 2.286 1.59 4.903 2.782 7.852 3.563 2.93 0.801 5.901 1.426 8.891 1.894 2.98 0.469 5.91 0.84 8.82 1.125 2.9 0.282 5.45 0.692 7.7 1.258 2.25 0.559 4 1.367 5.31 2.442 1.31 1.074 1.92 2.636 1.82 4.699 0 2.137-0.35 3.848-1.04 5.105-0.7 1.27-1.64 2.246-2.81 2.95-1.17 0.695-2.52 1.152-4.06 1.386-1.52 0.235-3.19 0.352-4.96 0.352-3.93 0-6.99-0.84-9.24-2.52-2.25-1.679-3.56-4.472-3.93-8.398h-19.88c0.293 4.668 1.445 8.547 3.516 11.621"/><path d="m1082.87 628.77v-10.079h0.41c2.52 4.2 5.78 7.247 9.8 9.161 4.01 1.914 8.13 2.871 12.33 2.871 5.31 0 9.66-0.723 13.08-2.168 3.4-1.446 6.1-3.457 8.05-6.016 1.95-2.566 3.34-5.703 4.12-9.383 0.8-3.683 1.19-7.765 1.19-12.246v-44.523h-19.88v40.879c0 5.976-0.92 10.429-2.79 13.371-1.88 2.937-5.18 4.414-9.94 4.414-5.42 0-9.34-1.613-11.76-4.836s-3.64-8.516-3.64-15.887v-37.941h-19.88v72.383h18.91"/><path d="m542.676 514.902v-49.316h52.023v49.316h28.262v-128.515h-28.262v55.441h-52.023v-55.441h-28.25v128.515h28.25"/><path d="m701.344 457.664c-3.047 3.363-7.715 5.043-13.949 5.043-4.082 0-7.461-0.695-10.168-2.07-2.704-1.379-4.852-3.098-6.473-5.129-1.621-2.039-2.774-4.199-3.43-6.485-0.652-2.273-1.043-4.316-1.16-6.113h41.566c-1.191 6.477-3.32 11.399-6.386 14.754zm-28.891-48.953c3.848-3.731 9.363-5.586 16.563-5.586 5.16 0 9.593 1.289 13.324 3.867 3.711 2.578 5.996 5.313 6.836 8.196h22.5c-3.594-11.165-9.121-19.141-16.563-23.938-7.441-4.805-16.445-7.207-26.996-7.207-7.324 0-13.926 1.172-19.804 3.516-5.879 2.343-10.86 5.664-14.942 9.992-4.074 4.316-7.226 9.48-9.445 15.476-2.215 5.996-3.328 12.598-3.328 19.805 0 6.953 1.132 13.438 3.418 19.434 2.285 5.996 5.527 11.191 9.726 15.566 4.199 4.387 9.199 7.832 15.02 10.352 5.82 2.519 12.273 3.789 19.355 3.789 7.914 0 14.828-1.543 20.707-4.59 5.879-3.067 10.703-7.176 14.492-12.332 3.77-5.168 6.504-11.047 8.184-17.649 1.68-6.601 2.285-13.496 1.797-20.695h-67.133c0.352-8.277 2.449-14.285 6.289-17.996"/><path d="m802.34 429.68c-1.621-0.539-3.36-0.989-5.235-1.36-1.855-0.351-3.808-0.656-5.839-0.898-2.051-0.234-4.082-0.535-6.133-0.899-1.914-0.351-3.809-0.839-5.664-1.433-1.856-0.606-3.477-1.418-4.864-2.434-1.367-1.015-2.48-2.304-3.32-3.867-0.84-1.562-1.269-3.543-1.269-5.937 0-2.286 0.429-4.207 1.269-5.762 0.84-1.563 1.973-2.793 3.418-3.692 1.445-0.898 3.125-1.531 5.039-1.894 1.914-0.352 3.906-0.535 5.938-0.535 5.039 0 8.945 0.84 11.699 2.519 2.754 1.676 4.805 3.692 6.133 6.024 1.308 2.343 2.129 4.707 2.422 7.109s0.449 4.328 0.449 5.762v9.551c-1.074-0.965-2.422-1.719-4.043-2.254zm-50.508 36.082c2.637 3.965 6.016 7.148 10.078 9.551 4.082 2.394 8.672 4.101 13.789 5.117 5.098 1.027 10.215 1.543 15.391 1.543 4.668 0 9.414-0.332 14.219-0.996 4.785-0.664 9.179-1.954 13.125-3.868 3.964-1.921 7.207-4.589 9.726-8.007 2.52-3.418 3.789-7.95 3.789-13.594v-48.418c0-4.199 0.235-8.223 0.723-12.07 0.469-3.829 1.308-6.719 2.519-8.633h-25.937c-0.469 1.445-0.859 2.91-1.152 4.414-0.313 1.496-0.528 3.027-0.645 4.59-4.082-4.2-8.867-7.149-14.394-8.828-5.528-1.68-11.153-2.52-16.915-2.52-4.453 0-8.593 0.547-12.421 1.621-3.848 1.086-7.207 2.766-10.079 5.039-2.89 2.285-5.136 5.156-6.757 8.645-1.621 3.484-2.422 7.625-2.422 12.422 0 5.281 0.918 9.628 2.773 13.046 1.875 3.426 4.258 6.153 7.207 8.192 2.949 2.031 6.309 3.574 10.078 4.59 3.789 1.015 7.598 1.828 11.446 2.422 3.828 0.605 7.617 1.093 11.328 1.445 3.711 0.363 7.012 0.898 9.902 1.621 2.871 0.723 5.156 1.769 6.836 3.144 1.68 1.387 2.461 3.399 2.344 6.036 0 2.754-0.449 4.953-1.348 6.574-0.898 1.617-2.109 2.879-3.594 3.777-1.503 0.899-3.242 1.504-5.234 1.797-1.973 0.305-4.102 0.449-6.387 0.449-5.039 0-9.004-1.074-11.875-3.242-2.871-2.148-4.57-5.75-5.039-10.801h-25.566c0.351 6.008 1.855 10.989 4.492 14.942"/><path d="m876.051 479.453v-17.285h0.351c1.192 2.883 2.813 5.547 4.864 8.008 2.031 2.461 4.375 4.562 7.011 6.301 2.637 1.738 5.469 3.093 8.457 4.05 3.008 0.957 6.133 1.446 9.375 1.446 1.68 0 3.536-0.313 5.567-0.907v-23.761c-1.192 0.234-2.637 0.449-4.317 0.625-1.679 0.187-3.3 0.273-4.863 0.273-4.668 0-8.633-0.781-11.875-2.332-3.242-1.562-5.84-3.691-7.832-6.398-1.973-2.696-3.379-5.84-4.219-9.453-0.84-3.594-1.269-7.5-1.269-11.7v-41.933h-25.567v93.066h24.317"/><path d="m982.887 479.453v-17.109h-18.731v-46.074c0-4.317 0.723-7.207 2.168-8.641 1.446-1.438 4.317-2.16 8.633-2.16 1.445 0 2.832 0.058 4.141 0.176 1.328 0.117 2.578 0.304 3.789 0.546v-19.804c-2.168-0.36-4.571-0.606-7.207-0.723-2.637-0.117-5.215-0.176-7.735-0.176-3.965 0-7.715 0.274-11.25 0.813-3.535 0.535-6.66 1.59-9.355 3.152-2.715 1.555-4.844 3.77-6.406 6.66-1.543 2.871-2.325 6.66-2.325 11.328v54.903h-15.488v17.109h15.488v27.891h25.547v-27.891h18.731"/><path d="m562.766 285.031-12.61 36.676h-0.281l-13.02-36.676h25.911zm-1.27 61.317 37.383-99.961h-22.824l-7.559 22.258h-37.371l-7.852-22.258h-22.109l37.793 99.961h22.539"/><path d="m622.188 264.375c0.89-1.543 2.023-2.801 3.429-3.777 1.406-0.977 3.008-1.7 4.824-2.168 1.825-0.473 3.711-0.703 5.672-0.703 1.399 0 2.871 0.164 4.414 0.488 1.536 0.332 2.942 0.84 4.2 1.543 1.261 0.699 2.316 1.629 3.156 2.801 0.84 1.164 1.25 2.636 1.25 4.406 0 2.988-1.973 5.234-5.949 6.726-3.965 1.485-9.5 2.981-16.59 4.473-2.891 0.656-5.715 1.426-8.469 2.316-2.754 0.887-5.203 2.051-7.352 3.497-2.148 1.445-3.867 3.269-5.175 5.457-1.309 2.199-1.953 4.882-1.953 8.058 0 4.656 0.898 8.485 2.722 11.473 1.817 2.988 4.219 5.344 7.207 7.07 2.989 1.731 6.348 2.942 10.09 3.645 3.731 0.703 7.559 1.043 11.473 1.043 3.918 0 7.726-0.371 11.418-1.114 3.672-0.75 6.972-2.011 9.863-3.777 2.891-1.777 5.293-4.133 7.207-7.07 1.914-2.942 3.055-6.653 3.438-11.133h-18.907c-0.273 3.828-1.73 6.414-4.336 7.773-2.617 1.348-5.703 2.02-9.238 2.02-1.125 0-2.344-0.067-3.644-0.203-1.309-0.137-2.5-0.442-3.575-0.91-1.074-0.469-1.98-1.145-2.722-2.032-0.754-0.886-1.125-2.078-1.125-3.574 0-1.765 0.656-3.211 1.964-4.336 1.309-1.121 3.008-2.031 5.106-2.734 2.102-0.692 4.504-1.328 7.219-1.883 2.695-0.559 5.449-1.172 8.25-1.828 2.89-0.645 5.715-1.445 8.468-2.371 2.754-0.938 5.204-2.168 7.352-3.711s3.879-3.457 5.188-5.742c1.296-2.285 1.953-5.11 1.953-8.469 0-4.766-0.957-8.75-2.871-11.973-1.915-3.222-4.415-5.808-7.481-7.773-3.086-1.953-6.613-3.328-10.578-4.129-3.973-0.793-7.996-1.184-12.109-1.184-4.2 0-8.309 0.422-12.313 1.262-4.023 0.84-7.598 2.234-10.723 4.199-3.125 1.953-5.683 4.551-7.695 7.762-2.012 3.223-3.105 7.258-3.293 12.109h18.899c0-2.148 0.449-3.984 1.336-5.527"/><path d="m697.379 264.375c0.879-1.543 2.012-2.801 3.418-3.777 1.406-0.977 3.008-1.7 4.824-2.168 1.836-0.473 3.711-0.703 5.684-0.703 1.386 0 2.871 0.164 4.414 0.488 1.523 0.332 2.929 0.84 4.199 1.543 1.25 0.699 2.305 1.629 3.145 2.801 0.839 1.164 1.25 2.636 1.25 4.406 0 2.988-1.973 5.234-5.938 6.726-3.965 1.485-9.512 2.981-16.602 4.473-2.89 0.656-5.703 1.426-8.457 2.316-2.757 0.887-5.218 2.051-7.359 3.497-2.148 1.445-3.875 3.269-5.184 5.457-1.308 2.199-1.953 4.882-1.953 8.058 0 4.656 0.907 8.485 2.735 11.473 1.816 2.988 4.218 5.344 7.207 7.07 2.988 1.731 6.351 2.942 10.082 3.645 3.73 0.703 7.558 1.043 11.484 1.043 3.906 0 7.715-0.371 11.406-1.114 3.672-0.75 6.973-2.011 9.864-3.777 2.89-1.777 5.293-4.133 7.207-7.07 1.914-2.942 3.066-6.653 3.437-11.133h-18.906c-0.273 3.828-1.719 6.414-4.336 7.773-2.617 1.348-5.703 2.02-9.238 2.02-1.114 0-2.344-0.067-3.633-0.203-1.309-0.137-2.5-0.442-3.574-0.91-1.075-0.469-1.992-1.145-2.735-2.032-0.742-0.886-1.113-2.078-1.113-3.574 0-1.765 0.645-3.211 1.953-4.336 1.309-1.121 3.008-2.031 5.117-2.734 2.09-0.692 4.493-1.328 7.207-1.883 2.696-0.559 5.45-1.172 8.262-1.828 2.891-0.645 5.703-1.445 8.457-2.371 2.754-0.938 5.215-2.168 7.363-3.711 2.149-1.543 3.868-3.457 5.176-5.742 1.309-2.285 1.953-5.11 1.953-8.469 0-4.766-0.957-8.75-2.871-11.973-1.914-3.222-4.414-5.808-7.48-7.773-3.086-1.953-6.602-3.328-10.567-4.129-3.984-0.793-8.007-1.184-12.109-1.184-4.199 0-8.32 0.422-12.324 1.262-4.024 0.84-7.594 2.234-10.719 4.199-3.125 1.953-5.691 4.551-7.703 7.762-2.004 3.223-3.098 7.258-3.281 12.109h18.89c0-2.148 0.449-3.984 1.348-5.527"/><path d="m774.293 274.035c0.566-2.754 1.523-5.226 2.871-7.414 1.367-2.195 3.164-3.945 5.391-5.254 2.246-1.308 5.039-1.961 8.398-1.961 3.379 0 6.192 0.653 8.477 1.961 2.285 1.309 4.101 3.059 5.468 5.254 1.348 2.188 2.305 4.66 2.872 7.414 0.546 2.754 0.839 5.574 0.839 8.477 0 2.89-0.293 5.73-0.839 8.535-0.567 2.801-1.524 5.273-2.872 7.422-1.367 2.148-3.183 3.894-5.468 5.254-2.285 1.347-5.098 2.019-8.477 2.019-3.359 0-6.152-0.672-8.398-2.019-2.227-1.36-4.024-3.106-5.391-5.254-1.348-2.149-2.305-4.621-2.871-7.422-0.547-2.805-0.84-5.645-0.84-8.535 0-2.903 0.293-5.723 0.84-8.477zm-18.066 24.219c1.777 4.715 4.296 8.73 7.578 12.039 3.261 3.32 7.168 5.879 11.758 7.707 4.57 1.816 9.707 2.723 15.39 2.723 5.703 0 10.86-0.907 15.488-2.723 4.61-1.828 8.555-4.387 11.817-7.707 3.262-3.309 5.781-7.324 7.558-12.039 1.778-4.707 2.676-9.965 2.676-15.742 0-5.793-0.898-11.016-2.676-15.684-1.777-4.668-4.296-8.664-7.558-11.973-3.262-3.312-7.207-5.859-11.817-7.628-4.628-1.77-9.785-2.657-15.488-2.657-5.683 0-10.82 0.887-15.39 2.657-4.59 1.769-8.497 4.316-11.758 7.628-3.282 3.309-5.801 7.305-7.578 11.973-1.758 4.668-2.657 9.891-2.657 15.684 0 5.777 0.899 11.035 2.657 15.742"/><path d="m875.934 305.742c-3.164 0-5.821-0.722-7.969-2.168-2.149-1.445-3.906-3.308-5.254-5.594-1.348-2.285-2.305-4.816-2.871-7.558-0.567-2.758-0.84-5.488-0.84-8.195 0-2.618 0.273-5.274 0.84-7.977 0.566-2.707 1.465-5.156 2.734-7.355 1.25-2.188 2.949-3.985 5.098-5.391 2.148-1.395 4.766-2.098 7.851-2.098 4.766 0 8.418 1.328 10.997 3.992 2.558 2.657 4.16 6.231 4.824 10.715h19.179c-1.308-9.621-5.039-16.945-11.21-21.984-6.153-5.039-14.043-7.559-23.653-7.559-5.41 0-10.39 0.91-14.902 2.727-4.531 1.824-8.379 4.363-11.563 7.625-3.164 3.273-5.644 7.168-7.422 11.699-1.777 4.524-2.656 9.492-2.656 14.902 0 5.606 0.821 10.801 2.461 15.618 1.621 4.804 4.024 8.953 7.207 12.461 3.164 3.496 7.031 6.23 11.621 8.183 4.571 1.961 9.785 2.938 15.664 2.938 4.297 0 8.438-0.559 12.403-1.68 3.965-1.113 7.5-2.82 10.644-5.105 3.125-2.286 5.664-5.137 7.617-8.536 1.973-3.41 3.086-7.453 3.36-12.113h-19.453c-1.309 8.305-6.211 12.453-14.707 12.453"/><path d="m942.164 318.77v-72.383h-19.883v72.383h19.883zm-19.883 11.203v16.375h19.883v-16.375h-19.883"/><path d="m999.762 280.059c-1.25-0.418-2.617-0.77-4.063-1.055-1.445-0.274-2.949-0.508-4.551-0.691-1.582-0.196-3.164-0.422-4.746-0.704-1.504-0.285-2.968-0.656-4.414-1.125-1.445-0.468-2.715-1.093-3.789-1.882-1.074-0.801-1.933-1.797-2.578-3.02-0.664-1.211-0.996-2.754-0.996-4.617 0-1.77 0.332-3.262 0.996-4.473 0.645-1.222 1.543-2.179 2.656-2.871 1.114-0.707 2.422-1.191 3.926-1.476 1.485-0.274 3.027-0.418 4.61-0.418 3.925 0 6.953 0.652 9.101 1.961 2.149 1.308 3.731 2.871 4.766 4.687 1.02 1.828 1.66 3.664 1.88 5.527 0.23 1.875 0.35 3.371 0.35 4.485v7.422c-0.84-0.754-1.88-1.329-3.148-1.75zm-39.258 28.066c2.051 3.086 4.648 5.559 7.832 7.422 3.164 1.867 6.738 3.195 10.703 3.992 3.965 0.793 7.969 1.184 11.973 1.184 3.652 0 7.324-0.254 11.058-0.762 3.73-0.516 7.15-1.523 10.23-3.016 3.07-1.496 5.59-3.566 7.56-6.23 1.95-2.656 2.93-6.184 2.93-10.567v-37.656c0-3.273 0.2-6.398 0.57-9.387 0.37-2.988 1.01-5.222 1.95-6.718h-20.16c-0.37 1.125-0.68 2.265-0.9 3.429-0.23 1.172-0.41 2.352-0.5 3.575-3.17-3.274-6.898-5.559-11.195-6.868-4.297-1.296-8.672-1.953-13.164-1.953-3.457 0-6.68 0.422-9.649 1.262-2.988 0.84-5.605 2.137-7.851 3.914-2.227 1.777-3.985 4.016-5.254 6.719-1.25 2.707-1.875 5.93-1.875 9.66 0 4.109 0.722 7.488 2.168 10.156 1.445 2.657 3.3 4.774 5.586 6.367 2.285 1.582 4.902 2.774 7.851 3.575 2.93 0.789 5.899 1.414 8.887 1.882 2.988 0.469 5.918 0.84 8.828 1.125 2.891 0.274 5.449 0.692 7.695 1.258 2.246 0.559 4.004 1.379 5.313 2.453 1.31 1.063 1.91 2.637 1.82 4.688 0 2.148-0.35 3.848-1.04 5.105-0.7 1.262-1.64 2.246-2.811 2.942-1.172 0.703-2.52 1.172-4.063 1.406-1.523 0.223-3.183 0.34-4.961 0.34-3.926 0-6.992-0.84-9.238-2.52-2.246-1.679-3.555-4.472-3.926-8.398h-19.883c0.293 4.668 1.446 8.547 3.516 11.621"/><path d="m1077.97 318.77v-13.301h-14.57v-35.84c0-3.359 0.56-5.606 1.67-6.719 1.12-1.121 3.36-1.68 6.72-1.68 1.12 0 2.19 0.04 3.23 0.137 1.03 0.09 2.01 0.235 2.95 0.422v-15.402c-1.68-0.282-3.56-0.469-5.61-0.555-2.05-0.098-4.06-0.148-6.02-0.148-3.08 0-6.01 0.214-8.75 0.636-2.75 0.418-5.19 1.231-7.28 2.45-2.11 1.21-3.77 2.937-4.98 5.175-1.21 2.246-1.82 5.188-1.82 8.821v42.703h-12.03v13.301h12.03v21.699h19.89v-21.699h14.57"/><path d="m1107.91 318.77v-72.383h-19.89v72.383h19.89zm-19.89 11.203v16.375h19.89v-16.375h-19.89"/><path d="m1142.07 274.035c0.56-2.754 1.52-5.226 2.87-7.414 1.37-2.195 3.16-3.945 5.39-5.254 2.24-1.308 5.04-1.961 8.4-1.961 3.38 0 6.19 0.653 8.47 1.961 2.29 1.309 4.11 3.059 5.47 5.254 1.35 2.188 2.31 4.66 2.87 7.414 0.55 2.754 0.84 5.574 0.84 8.477 0 2.89-0.29 5.73-0.84 8.535-0.56 2.801-1.52 5.273-2.87 7.422-1.36 2.148-3.18 3.894-5.47 5.254-2.28 1.347-5.09 2.019-8.47 2.019-3.36 0-6.16-0.672-8.4-2.019-2.23-1.36-4.02-3.106-5.39-5.254-1.35-2.149-2.31-4.621-2.87-7.422-0.55-2.805-0.84-5.645-0.84-8.535 0-2.903 0.29-5.723 0.84-8.477zm-18.05 24.219c1.78 4.715 4.3 8.73 7.56 12.039 3.26 3.32 7.19 5.879 11.76 7.707 4.57 1.816 9.7 2.723 15.39 2.723 5.7 0 10.86-0.907 15.49-2.723 4.6-1.828 8.55-4.387 11.81-7.707 3.26-3.309 5.78-7.324 7.56-12.039 1.78-4.707 2.68-9.965 2.68-15.742 0-5.793-0.9-11.016-2.68-15.684s-4.3-8.664-7.56-11.973c-3.26-3.312-7.21-5.859-11.81-7.628-4.63-1.77-9.79-2.657-15.49-2.657-5.69 0-10.82 0.887-15.39 2.657-4.57 1.769-8.5 4.316-11.76 7.628-3.26 3.309-5.78 7.305-7.56 11.973s-2.66 9.891-2.66 15.684c0 5.777 0.88 11.035 2.66 15.742"/><path d="m1228.04 318.77v-10.079h0.41c2.52 4.2 5.79 7.258 9.81 9.172 4 1.903 8.12 2.86 12.32 2.86 5.32 0 9.67-0.723 13.09-2.168 3.4-1.446 6.09-3.446 8.05-6.016 1.95-2.566 3.34-5.691 4.12-9.383 0.8-3.683 1.19-7.765 1.19-12.246v-44.523h-19.88v40.879c0 5.976-0.92 10.429-2.8 13.371-1.87 2.937-5.17 4.414-9.94 4.414-5.41 0-9.34-1.613-11.76-4.836s-3.63-8.516-3.63-15.887v-37.941h-19.88v72.383h18.9"/><path d="m1321.6 269.199c3.06 0 5.76 0.305 5.76 3.899 0 2.996-2.93 3.359-5.39 3.359h-4.92v-7.258h4.55zm-4.55-14.09h-4.08v24.825h9.41c6 0 9.06-2.102 9.06-7.129 0-4.504-2.75-6.36-6.48-6.778l6.95-10.918h-4.61l-6.42 10.614h-3.83v-10.614zm4.43 31.368c-9.71 0-17.26-7.618-17.26-18.536 0-10.195 6.6-18.527 17.26-18.527 9.59 0 17.15 7.551 17.15 18.527 0 10.918-7.56 18.536-17.15 18.536zm0-40.957c-12.89 0-22.07 9.644-22.07 22.421 0 13.497 10.2 22.43 22.07 22.43 11.76 0 21.95-8.933 21.95-22.43 0-13.488-10.19-22.421-21.95-22.421"/></g><g fill="#ed1c24"><path d="m522.738 26.7578h15.9727v100.012h-15.9727v-100.012z"/><path d="m556.48 99.1797h15.973v-72.4219h-15.973v72.4219zm0 27.5903h15.973v-15.129h-15.973v15.129"/><path d="m582.656 99.1797h11.91v6.0273c0 18.484 9.664 21.563 20.032 21.563 5.043 0 8.683-0.274 11.203-0.981v-12.469c-2.098 0.567-4.203 0.852-7.422 0.852-4.344 0-7.848-1.543-7.848-7.57v-7.4223h13.59v-11.9024h-13.59v-60.5195h-15.965v60.5195h-11.91v11.9024"/><path d="m683.625 69.3477c-0.559 10.0781-7.422 19.1875-18.207 19.1875-11.066 0-18.629-8.4063-19.055-19.1875h37.262zm-37.262-10.5079c0-11.3476 6.168-21.4375 19.473-21.4375 9.242 0 14.848 4.0625 17.652 12.0508h15.121c-3.496-15.8281-16.941-24.6562-32.773-24.6562-22.691 0-35.438 15.8281-35.438 38.1054 0 20.586 13.446 38.2427 35.02 38.2427 22.828 0 36.836-20.5981 34.18-42.3052h-53.235"/></g><g fill="#231f20"><path d="m750.797 99.0352h8.828v-72.2774h-8.828v72.2774zm0 27.7348h8.828v-14.141h-8.828v14.141"/><path d="m819.84 77.8828c-0.418 10.9258-8.828 15.8281-18.906 15.8281-7.852 0-17.09-3.0742-17.09-12.4609 0-7.8516 8.965-10.6445 14.992-12.1875l11.758-2.6641c10.086-1.5429 20.594-7.4218 20.594-20.0312 0-15.6836-15.547-21.707-28.993-21.707-16.808 0-28.3 7.8398-29.699 25.4882h8.828c0.696-11.9062 9.524-18.0664 21.289-18.0664 8.262 0 19.746 3.6407 19.746 13.7305 0 8.3984-7.839 11.1992-15.828 13.1641l-11.34 2.5195c-11.492 3.0859-20.175 7-20.175 19.3359 0 14.7071 14.425 20.313 27.179 20.313 14.422 0 25.907-7.5708 26.473-23.2622h-8.828"/><path d="m875.531 99.0352h9.387l18.488-61.9141h0.282l17.648 61.9141h9.949l17.649-61.9141h0.281l18.484 61.9141h9.387l-23.25-72.2774h-9.668l-17.785 60.793h-0.281l-17.649-60.793h-9.668l-23.254 72.2774"/><path d="m986.422 126.77h8.816v-40.1958h0.285c3.223 8.6797 12.877 14.5708 23.117 14.5708 20.3 0 26.47-10.6567 26.47-27.8833v-46.5039h-8.82v45.1094c0 12.4609-4.07 21.8437-18.35 21.8437-14.02 0-22.417-10.6445-22.702-24.7929v-42.1602h-8.816v100.0122"/><path d="m1053.61 99.0352h9.38l23.81-61.6329 22.28 61.6329h8.83l-31.38-83.3399c-5.05-12.18749-7.99-15.6953-19.05-15.6953-3.51 0.148438-5.33 0.148438-6.73 0.703125v7.421875c2.11-0.41797 4.06-0.69141 6.02-0.69141 7.85 0 9.67 4.61721 12.61 11.33591l3.09 8.2735-28.86 71.9922"/><path d="m1169.26 78.2617h-3.42v17.3438h-0.11l-6.8-17.3438h-2.17l-6.81 17.3438h-0.1v-17.3438h-3.43v20.7735h5.3l6.2-15.7813 6.1 15.7813h5.24v-20.7735zm-27.07 18h-6.51v-18h-3.43v18h-6.5v2.7735h16.44v-2.7735"/></g></g></g></svg>
